<svg width="111" height="14" viewBox="0 0 111 14" fill="none" xmlns="http://www.w3.org/2000/svg">
<path d="M0 0.299H5.227C5.973 0.299 6.661 0.454 7.289 0.765C7.918 1.076 8.412 1.5 8.773 2.035C9.134 2.57 9.315 3.155 9.315 3.789C9.315 4.461 9.15 5.043 8.82 5.535C8.49 6.026 8.058 6.403 7.523 6.664V6.814C8.22 7.062 8.773 7.457 9.184 7.999C9.594 8.54 9.8 9.19 9.8 9.949C9.8 10.684 9.604 11.334 9.212 11.9C8.8125 12.4726 8.26358 12.9247 7.625 13.207C6.96 13.512 6.222 13.664 5.413 13.664H0V0.299ZM5.04 5.749C5.588 5.749 6.026 5.597 6.356 5.292C6.686 4.987 6.851 4.604 6.851 4.144C6.851 3.696 6.692 3.32 6.375 3.014C6.057 2.71 5.637 2.557 5.115 2.557H2.52V5.749H5.04ZM5.32 11.368C5.93 11.368 6.406 11.209 6.748 10.892C7.09 10.575 7.261 10.161 7.261 9.651C7.261 9.141 7.087 8.724 6.739 8.4C6.39 8.076 5.892 7.915 5.245 7.915H2.52V11.368H5.32ZM18.247 13.963C16.94 13.963 15.755 13.655 14.691 13.039C13.6412 12.4374 12.7736 11.5633 12.18 10.509C11.57 9.439 11.265 8.263 11.265 6.981C11.265 5.7 11.57 4.524 12.18 3.453C12.7735 2.39923 13.6407 1.52543 14.69 0.924C15.756 0.308 16.94 0 18.248 0C19.554 0 20.74 0.308 21.804 0.924C22.8534 1.52571 23.7206 2.39987 24.314 3.454C24.924 4.524 25.229 5.7 25.229 6.981C25.229 8.263 24.924 9.439 24.314 10.509C23.7206 11.5631 22.8534 12.4373 21.804 13.039C20.74 13.655 19.553 13.963 18.247 13.963ZM18.247 11.573C19.0373 11.581 19.8158 11.3818 20.505 10.995C21.1841 10.6147 21.7435 10.0522 22.12 9.371C22.512 8.674 22.708 7.877 22.708 6.981C22.708 6.085 22.512 5.289 22.12 4.592C21.7435 3.91077 21.1841 3.34829 20.505 2.968C19.8159 2.5809 19.0373 2.38126 18.247 2.389C17.4591 2.38031 16.6829 2.58006 15.997 2.968C15.3221 3.35052 14.7666 3.91268 14.392 4.592C14 5.289 13.804 6.085 13.804 6.982C13.804 7.877 14 8.674 14.392 9.371C14.7666 10.0503 15.3221 10.6125 15.997 10.995C16.683 11.3826 17.4592 11.582 18.247 11.573ZM33.6 13.963C32.293 13.963 31.108 13.655 30.044 13.039C28.9946 12.4373 28.1274 11.5631 27.534 10.509C26.924 9.439 26.619 8.263 26.619 6.981C26.619 5.7 26.924 4.524 27.533 3.453C28.1268 2.3991 28.9944 1.52529 30.044 0.924C31.108 0.308 32.294 0 33.6 0C34.907 0 36.092 0.308 37.156 0.924C38.2054 1.52571 39.0726 2.39987 39.666 3.454C40.276 4.524 40.581 5.7 40.581 6.981C40.581 8.263 40.276 9.439 39.667 10.509C39.0734 11.5633 38.2058 12.4374 37.156 13.039C36.092 13.655 34.906 13.963 33.6 13.963ZM33.6 11.573C34.3906 11.5812 35.1695 11.3819 35.859 10.995C36.5378 10.6146 37.0968 10.0521 37.473 9.371C37.865 8.674 38.061 7.877 38.061 6.981C38.061 6.085 37.865 5.289 37.473 4.592C37.0968 3.9109 36.5378 3.34844 35.859 2.968C35.1696 2.58073 34.3907 2.38108 33.6 2.389C32.8121 2.38031 32.0359 2.58006 31.35 2.968C30.6751 3.35052 30.1196 3.91268 29.745 4.592C29.353 5.289 29.157 6.085 29.157 6.982C29.157 7.877 29.353 8.674 29.745 9.371C30.1198 10.0505 30.6758 10.6126 31.351 10.995C32.0367 11.3824 32.8125 11.5818 33.6 11.573ZM42.83 0.3H45.35V6.03H45.5L50.39 0.3H53.433V0.449L48.6 5.973L53.938 13.515V13.664H50.858L46.864 7.971L45.352 9.744V13.664H42.832V0.299L42.83 0.3ZM56.779 0H60.027L63.573 9.39H63.723L67.268 0H70.535V13.365H68.034V6.776L68.184 4.555H68.034L64.636 13.365H62.676L59.26 4.555H59.111L59.261 6.776V13.366H56.778L56.779 0ZM77.579 0H80.473L85.494 13.365H82.713L81.593 10.173H76.478L75.358 13.365H72.577L77.579 0ZM80.772 7.859L79.596 4.499L79.11 2.893H78.961L78.476 4.499L77.281 7.859H80.772ZM87.553 0H92.425C93.296 0 94.071 0.18 94.749 0.541C95.427 0.902 95.953 1.403 96.326 2.044C96.7 2.684 96.886 3.41 96.886 4.219C96.886 5.077 96.616 5.839 96.074 6.505C95.539 7.16643 94.8316 7.66719 94.03 7.952L94.012 8.082L97.596 13.216V13.366H94.702L91.249 8.344H90.073V13.365H87.553V0ZM92.406 6.03C92.979 6.03 93.446 5.855 93.806 5.507C94.167 5.158 94.348 4.717 94.348 4.181C94.348 3.671 94.176 3.236 93.834 2.875C93.492 2.514 93.028 2.333 92.444 2.333H90.073V6.029L92.406 6.03ZM99.636 0H102.156V5.73H102.306L107.196 0H110.239V0.15L105.404 5.675L110.744 13.216V13.366H107.664L103.668 7.672L102.156 9.445V13.365H99.636V0Z" fill="white"/>
</svg>
